<?xml version="1.0" encoding="utf-8"?>
<!-- Generator: Adobe Illustrator 21.0.0, SVG Export Plug-In . SVG Version: 6.00 Build 0)  -->
<svg version="1.1" id="Layer_1" xmlns="http://www.w3.org/2000/svg" xmlns:xlink="http://www.w3.org/1999/xlink" x="0px" y="0px"
	 viewBox="0 0 117 114" style="enable-background:new 0 0 117 114;" xml:space="preserve">
<style type="text/css">
	.st0{fill:url(#Oval-1_1_);}
	.st1{fill:#FFFFFF;fill-opacity:0.7;}
	.st2{fill:#FFFFFF;fill-opacity:0.6;}
	.st3{fill:#FFFFFF;}
</style>
<title>badge full</title>
<desc>Created with Sketch.</desc>
<g id="Page-1">
	<g id="Mark-with-Circle-Shape-_x2B_-Logotype-Copy-2" transform="translate(-378.000000, -1114.000000)">
		<g id="badge-full" transform="translate(340.000000, 1076.000000)">
			
				<linearGradient id="Oval-1_1_" gradientUnits="userSpaceOnUse" x1="-1327.0289" y1="8.535" x2="-1327.0289" y2="9.5211" gradientTransform="matrix(113.6402 0 0 112.9518 150900.3281 -925.5385)">
				<stop  offset="0" style="stop-color:#FF6633"/>
				<stop  offset="1" style="stop-color:#FF0E83"/>
			</linearGradient>
			<ellipse id="Oval-1" class="st0" cx="96.5" cy="95" rx="56.8" ry="56.5"/>
			<path id="Imported-Layers" class="st1" d="M117.6,68.6L97.3,83.7c-0.1,0-0.2,0.1-0.2,0.1L76.5,68.7c-1.1-0.9-2.5-1.2-3.8-1.2
				c-3,0-5.9,2.1-5.9,5.1V84v34.1c0,3,2.9,5.1,5.9,5.1c1.3,0,2.6-0.4,3.8-1.2l20.6-15.2c10.3,7.7,20.4,15.2,20.4,15.2
				c1.1,0.9,2.5,1.2,3.8,1.2c3,0,6.1-2.1,6.1-5.1V84V72.4c0-3-3-5-6.1-5C120.1,67.3,118.7,67.7,117.6,68.6z"/>
			<polygon id="Fill-3-Copy" class="st2" points="81.3,94.9 96.5,106.3 111.5,94.9 96.5,83.4 			"/>
			<polyline id="Fill-4-Copy" class="st2" points="66.9,85 66.9,107.6 82,96.3 66.9,85 			"/>
			<polyline id="Fill-5-Copy" class="st2" points="111.8,94.9 127,106.3 127,83.4 111.8,94.9 			"/>
			<path id="Fill-6-Copy" class="st3" d="M117.5,69L97.3,84l15,11.5L127.6,84V72.6C127.6,68.2,121.8,65.4,117.5,69z"/>
			<path id="Fill-7-Copy" class="st3" d="M76.5,68.6c-3.8-2.8-9.6-0.5-9.6,3.9V84L82,95.3l15.1-11.5L76.5,68.6z"/>
		</g>
	</g>
</g>
</svg>
